#define hellomask_smol_width 21
#define hellomask_smol_height 21
static unsigned char hellomask_smol_bits[] = {
   0x00, 0x1e, 0x00, 0x00, 0x1e, 0x00, 0x00, 0x1e, 0x00, 0x00, 0x1e, 0x00,
   0x00, 0x1e, 0x00, 0x00, 0x1e, 0x00, 0x00, 0x00, 0x00, 0x00, 0x1e, 0x00,
   0x00, 0x1e, 0x00, 0xbf, 0xff, 0x1f, 0xbf, 0xff, 0x1f, 0xbf, 0xff, 0x1f,
   0xbf, 0xff, 0x1f, 0x00, 0xfe, 0x1f, 0x00, 0xfe, 0x1f, 0x00, 0xfe, 0x1f,
   0x00, 0xfe, 0x1f, 0x00, 0xfe, 0x1f, 0x00, 0xfe, 0x1f, 0x00, 0xfe, 0x1f,
   0x00, 0xfe, 0x1f };
