#define hellocode2_smol_width 21
#define hellocode2_smol_height 21
static unsigned char hellocode2_smol_bits[] = {
   0x7f, 0xd5, 0x1f, 0x41, 0x43, 0x10, 0x5d, 0x50, 0x17, 0x5d, 0x49, 0x17,
   0x5d, 0x44, 0x17, 0x41, 0x46, 0x10, 0x7f, 0xd5, 0x1f, 0x00, 0x05, 0x00,
   0xed, 0x46, 0x1a, 0x87, 0x97, 0x16, 0xea, 0xf2, 0x19, 0x9b, 0x34, 0x0a,
   0xf0, 0x2f, 0x11, 0x00, 0x23, 0x04, 0x7f, 0x63, 0x01, 0x41, 0xff, 0x17,
   0x5d, 0xc8, 0x1f, 0x5d, 0x27, 0x0e, 0x5d, 0xaf, 0x04, 0x41, 0xde, 0x11,
   0x7f, 0x9d, 0x04 };
