#define hellocode_smol_width 21
#define hellocode_smol_height 21
static unsigned char hellocode_smol_bits[] = {
   0x7f, 0xd3, 0x1f, 0x41, 0x59, 0x10, 0x5d, 0x46, 0x17, 0x5d, 0x55, 0x17,
   0x5d, 0x42, 0x17, 0x41, 0x42, 0x10, 0x7f, 0xd5, 0x1f, 0x00, 0x01, 0x00,
   0xed, 0x44, 0x1a, 0x13, 0x97, 0x16, 0x5c, 0xf3, 0x19, 0x2b, 0x35, 0x0a,
   0xf3, 0x2c, 0x11, 0x00, 0x25, 0x04, 0x7f, 0x63, 0x01, 0x41, 0x7d, 0x16,
   0x5d, 0x4a, 0x1e, 0x5d, 0x27, 0x0e, 0x5d, 0xaf, 0x04, 0x41, 0xda, 0x11,
   0x7f, 0x9d, 0x04 };
