#define test_width 16
#define test_height 16
static unsigned char test_bits[] = {
   0x01, 0x00, 0x02, 0x00, 0x04, 0x00, 0x08, 0x00, 0x10, 0x00, 0x20, 0x00,
   0x40, 0x00, 0x80, 0x00, 0xfe, 0xff, 0xfd, 0xff, 0xfb, 0xff, 0xf7, 0xff,
   0xef, 0xff, 0xdf, 0xff, 0xbf, 0xff, 0x7f, 0xff };
